<svg xmlns="http://www.w3.org/2000/svg" viewBox="0 0 160 160"><title>diver pig</title><ellipse cx="80" cy="145" rx="47" ry="5" fill="#28679d" opacity=".12"/><path d="M132 99q23-24 19-4-2 10-13 4" fill="none" stroke="#28679d" stroke-width="5"/><g fill="#53b7ea" stroke="#28679d" stroke-width="2.5"><path d="M28 65 15 34q17-20 39 10M105 45q17-26 34-11l-10 37"/><ellipse cx="80" cy="94" rx="62" ry="49"/><rect x="31" y="124" width="20" height="24" rx="9"/><rect x="103" y="124" width="20" height="24" rx="9"/></g><path d="M24 43 34 57m87 0 11-13" stroke="#ffd6d9" stroke-width="8" stroke-linecap="round"/><ellipse cx="57" cy="85" rx="6" ry="8" fill="#38303c"/><ellipse cx="98" cy="85" rx="6" ry="8" fill="#38303c"/><g fill="#fff"><circle cx="55" cy="82" r="2"/><circle cx="96" cy="82" r="2"/></g><ellipse cx="79" cy="111" rx="23" ry="16" fill="#ffd2d5" stroke="#28679d" stroke-width="2"/><g fill="#28679d"><ellipse cx="70" cy="110" rx="3.5" ry="5"/><ellipse cx="88" cy="110" rx="3.5" ry="5"/></g><path d="M71 133q8 7 16 0" fill="none" stroke="#28679d" stroke-width="3" stroke-linecap="round"/><circle cx="81" cy="87" r="66" fill="none" stroke="#def8ff" stroke-width="8"/><path d="M138 67h16v37h-16M54 31v-9h49v9" fill="#396db0"/><path d="M35 120q49 20 94-1" fill="none" stroke="#396db0" stroke-width="11"/></svg>